<svg id="EnoRm_Logo_Regular" data-name="EnoRm® Logo Regular" xmlns="http://www.w3.org/2000/svg" width="120.104" height="50.888" viewBox="0 0 120.104 50.888">
  <g id="EnoRm_Logo_Regular-2" data-name="EnoRm® Logo Regular">
    <rect id="Rectangle_3" data-name="Rectangle 3" width="120.104" height="50.888"/>
    <g id="Group_1" data-name="Group 1" transform="translate(6.828 6.653)">
      <path id="Path_2" data-name="Path 2" d="M214.1,33.284h5.708v2.661h.14A6.855,6.855,0,0,1,225.69,32.9a5.678,5.678,0,0,1,5.287,3.046,6.058,6.058,0,0,1,5.357-3.046c3.291,0,5.953,1.576,5.953,6.3V65.218h-6.093V40.357c0-1.646-.455-2.871-2.311-2.871s-2.661.875-2.661,3.362V65.218h-6.058V40.357c0-1.646-.455-2.871-2.311-2.871s-2.661.875-2.661,3.362V65.218H214.1Z" transform="translate(-145.959 -28.031)" fill="#fff"/>
      <path id="Path_3" data-name="Path 3" d="M301.7,103.8h7.633v7.493H301.7Z" transform="translate(-202.886 -74.107)" fill="#fff"/>
      <path id="Path_4" data-name="Path 4" d="M39.529,56.187V32.376c0-2.416,1.156-3.291,2.591-3.291s2.276,1.191,2.276,2.8V56.222h5.953V30.73c0-4.622-2.591-6.163-5.567-6.163a6.2,6.2,0,0,0-3.221.805,5.848,5.848,0,0,0-2.276,2.206h-.14V24.953H33.576V51.88H24.717V39.309h7.738V34.967H24.717V23.342h9V19H19.5V56.187Z" transform="translate(-19.5 -19)" fill="#fff"/>
      <path id="Path_5" data-name="Path 5" d="M113,43.3c0-5.287,3.081-8.4,8.4-8.4,4.552,0,8.474,2,8.474,7.773V58.466c0,5.287-3.081,8.4-8.4,8.4-4.552,0-8.474-2-8.474-7.773Zm5.953,15.547c0,2.486.63,3.922,2.521,3.922s2.451-1.436,2.451-3.922v-15.9c0-2.486-.63-3.922-2.451-3.922s-2.521,1.436-2.521,3.922Z" transform="translate(-80.26 -29.333)" fill="#fff"/>
      <path id="Path_6" data-name="Path 6" d="M165.4,29h7.353c6.933,0,7.633,1.821,7.633,9.209,0,4.517-.63,6.478-4.517,7.668v.105c3.221.315,4.307,1.961,4.307,5.147v7.283a22.76,22.76,0,0,0,.28,4.307H176.01a5.592,5.592,0,0,1-.56-3.046V52.04c0-3.186-.56-4.027-3.712-4.027h-1.611V62.685H165.4Zm4.727,15.127h1.226c3.747,0,4.272-.7,4.272-5.743s-.28-5.462-3.221-5.462h-2.276Z" transform="translate(-114.312 -25.498)" fill="#fff"/>
      <path id="Path_7" data-name="Path 7" d="M300.9,29.2a2.661,2.661,0,1,1-2.7,2.661,2.7,2.7,0,0,1,2.7-2.661Zm0,4.8a2.136,2.136,0,1,0-2.136-2.136A2.1,2.1,0,0,0,300.9,34Zm-.175-1.926h-.49v1.3h-.525V30.321h1.226c.77,0,1.156.245,1.156.875a.735.735,0,0,1-.805.805l.84,1.366h-.6Zm.07-.42c.385,0,.735-.035.735-.455s-.385-.385-.665-.385h-.6v.84Z" transform="translate(-200.611 -25.628)" fill="#fff"/>
    </g>
  </g>
</svg>
